<?xml version="1.0" encoding="UTF-8" ?>
<!DOCTYPE svg PUBLIC "-//W3C//DTD SVG 1.1//EN" "http://www.w3.org/Graphics/SVG/1.1/DTD/svg11.dtd">
<svg width="302pt" height="212pt" viewBox="0 0 302 212" version="1.1" xmlns="http://www.w3.org/2000/svg">
<g id="#000000ff">
<path fill="#000000" opacity="1.00" d=" M 148.59 0.00 L 166.36 0.00 C 179.15 3.13 193.07 4.52 204.38 11.60 C 236.10 54.87 268.59 97.63 299.65 141.38 C 302.11 143.57 299.51 146.27 297.59 147.67 C 267.29 133.53 230.52 142.01 203.36 159.49 C 203.90 173.23 216.32 182.33 227.88 187.33 C 231.32 188.41 228.51 191.84 227.24 193.69 C 212.71 188.50 199.25 177.14 196.73 161.21 C 154.25 156.48 109.79 178.54 83.73 212.00 L 80.41 212.00 C 53.65 171.54 26.92 131.05 0.00 90.70 L 0.00 88.47 C 5.22 79.10 11.63 70.50 15.52 60.41 C 34.20 27.82 77.35 2.13 114.34 18.55 C 122.65 7.82 135.55 2.34 148.59 0.00 M 151.34 6.45 C 139.85 7.69 125.36 12.04 120.30 22.98 C 144.97 57.31 170.75 91.04 195.75 125.20 C 198.48 129.47 201.54 122.63 204.20 121.21 C 223.92 100.75 256.05 105.53 277.12 121.17 C 251.92 85.79 225.70 51.04 199.87 16.11 C 184.95 9.00 167.89 5.68 151.34 6.45 M 88.31 19.43 C 57.20 22.21 27.92 43.81 16.61 73.05 C 36.77 105.52 58.88 137.09 79.68 169.29 C 80.09 170.62 82.29 171.81 82.89 169.96 C 99.40 143.81 126.05 121.13 157.98 118.74 C 168.66 118.58 179.54 121.42 188.25 127.77 C 190.36 130.28 189.59 126.74 188.79 126.23 C 164.76 93.89 140.81 61.49 116.79 29.15 C 109.81 21.14 98.56 18.59 88.31 19.43 Z" />
</g>
</svg>
